<?xml version="1.0" encoding="utf-8" standalone="no"?>
<!DOCTYPE svg PUBLIC "-//W3C//DTD SVG 1.1//EN"
  "http://www.w3.org/Graphics/SVG/1.1/DTD/svg11.dtd">
<svg xmlns:xlink="http://www.w3.org/1999/xlink" width="624.98625pt" height="396.775125pt" viewBox="0 0 624.98625 396.775125" xmlns="http://www.w3.org/2000/svg" version="1.1">
 <metadata>
  <rdf:RDF xmlns:dc="http://purl.org/dc/elements/1.1/" xmlns:cc="http://creativecommons.org/ns#" xmlns:rdf="http://www.w3.org/1999/02/22-rdf-syntax-ns#">
   <cc:Work>
    <dc:type rdf:resource="http://purl.org/dc/dcmitype/StillImage"/>
    <dc:date>2025-06-25T19:34:11.627366</dc:date>
    <dc:format>image/svg+xml</dc:format>
    <dc:creator>
     <cc:Agent>
      <dc:title>Matplotlib v3.10.3, https://matplotlib.org/</dc:title>
     </cc:Agent>
    </dc:creator>
   </cc:Work>
  </rdf:RDF>
 </metadata>
 <defs>
  <style type="text/css">*{stroke-linejoin: round; stroke-linecap: butt}</style>
 </defs>
 <g id="figure_1">
  <g id="patch_1">
   <path d="M 0 396.775125 
L 624.98625 396.775125 
L 624.98625 -0 
L 0 -0 
z
" style="fill: #ffffff"/>
  </g>
  <g id="axes_1">
   <g id="patch_2">
    <path d="M 62.46 292.032 
L 419.58 292.032 
L 419.58 25.92 
L 62.46 25.92 
z
" style="fill: #ffffff"/>
   </g>
   <g id="matplotlib.axis_1">
    <g id="xtick_1">
     <g id="line2d_1">
      <defs>
       <path id="m12bc809da4" d="M 0 0 
L 0 3.5 
" style="stroke: #000000; stroke-width: 0.8"/>
      </defs>
      <g>
       <use xlink:href="#m12bc809da4" x="78.692727" y="292.032" style="stroke: #000000; stroke-width: 0.8"/>
      </g>
     </g>
     <g id="text_1">
      <!-- 0 -->
      <g transform="translate(75.511477 306.630437) scale(0.1 -0.1)">
       <defs>
        <path id="DejaVuSans-30" d="M 2034 4250 
Q 1547 4250 1301 3770 
Q 1056 3291 1056 2328 
Q 1056 1369 1301 889 
Q 1547 409 2034 409 
Q 2525 409 2770 889 
Q 3016 1369 3016 2328 
Q 3016 3291 2770 3770 
Q 2525 4250 2034 4250 
z
M 2034 4750 
Q 2819 4750 3233 4129 
Q 3647 3509 3647 2328 
Q 3647 1150 3233 529 
Q 2819 -91 2034 -91 
Q 1250 -91 836 529 
Q 422 1150 422 2328 
Q 422 3509 836 4129 
Q 1250 4750 2034 4750 
z
" transform="scale(0.015625)"/>
       </defs>
       <use xlink:href="#DejaVuSans-30"/>
      </g>
     </g>
    </g>
    <g id="xtick_2">
     <g id="line2d_2">
      <g>
       <use xlink:href="#m12bc809da4" x="143.623636" y="292.032" style="stroke: #000000; stroke-width: 0.8"/>
      </g>
     </g>
     <g id="text_2">
      <!-- 1 -->
      <g transform="translate(140.442386 306.630437) scale(0.1 -0.1)">
       <defs>
        <path id="DejaVuSans-31" d="M 794 531 
L 1825 531 
L 1825 4091 
L 703 3866 
L 703 4441 
L 1819 4666 
L 2450 4666 
L 2450 531 
L 3481 531 
L 3481 0 
L 794 0 
L 794 531 
z
" transform="scale(0.015625)"/>
       </defs>
       <use xlink:href="#DejaVuSans-31"/>
      </g>
     </g>
    </g>
    <g id="xtick_3">
     <g id="line2d_3">
      <g>
       <use xlink:href="#m12bc809da4" x="208.554545" y="292.032" style="stroke: #000000; stroke-width: 0.8"/>
      </g>
     </g>
     <g id="text_3">
      <!-- 2 -->
      <g transform="translate(205.373295 306.630437) scale(0.1 -0.1)">
       <defs>
        <path id="DejaVuSans-32" d="M 1228 531 
L 3431 531 
L 3431 0 
L 469 0 
L 469 531 
Q 828 903 1448 1529 
Q 2069 2156 2228 2338 
Q 2531 2678 2651 2914 
Q 2772 3150 2772 3378 
Q 2772 3750 2511 3984 
Q 2250 4219 1831 4219 
Q 1534 4219 1204 4116 
Q 875 4013 500 3803 
L 500 4441 
Q 881 4594 1212 4672 
Q 1544 4750 1819 4750 
Q 2544 4750 2975 4387 
Q 3406 4025 3406 3419 
Q 3406 3131 3298 2873 
Q 3191 2616 2906 2266 
Q 2828 2175 2409 1742 
Q 1991 1309 1228 531 
z
" transform="scale(0.015625)"/>
       </defs>
       <use xlink:href="#DejaVuSans-32"/>
      </g>
     </g>
    </g>
    <g id="xtick_4">
     <g id="line2d_4">
      <g>
       <use xlink:href="#m12bc809da4" x="273.485455" y="292.032" style="stroke: #000000; stroke-width: 0.8"/>
      </g>
     </g>
     <g id="text_4">
      <!-- 3 -->
      <g transform="translate(270.304205 306.630437) scale(0.1 -0.1)">
       <defs>
        <path id="DejaVuSans-33" d="M 2597 2516 
Q 3050 2419 3304 2112 
Q 3559 1806 3559 1356 
Q 3559 666 3084 287 
Q 2609 -91 1734 -91 
Q 1441 -91 1130 -33 
Q 819 25 488 141 
L 488 750 
Q 750 597 1062 519 
Q 1375 441 1716 441 
Q 2309 441 2620 675 
Q 2931 909 2931 1356 
Q 2931 1769 2642 2001 
Q 2353 2234 1838 2234 
L 1294 2234 
L 1294 2753 
L 1863 2753 
Q 2328 2753 2575 2939 
Q 2822 3125 2822 3475 
Q 2822 3834 2567 4026 
Q 2313 4219 1838 4219 
Q 1578 4219 1281 4162 
Q 984 4106 628 3988 
L 628 4550 
Q 988 4650 1302 4700 
Q 1616 4750 1894 4750 
Q 2613 4750 3031 4423 
Q 3450 4097 3450 3541 
Q 3450 3153 3228 2886 
Q 3006 2619 2597 2516 
z
" transform="scale(0.015625)"/>
       </defs>
       <use xlink:href="#DejaVuSans-33"/>
      </g>
     </g>
    </g>
    <g id="xtick_5">
     <g id="line2d_5">
      <g>
       <use xlink:href="#m12bc809da4" x="338.416364" y="292.032" style="stroke: #000000; stroke-width: 0.8"/>
      </g>
     </g>
     <g id="text_5">
      <!-- 4 -->
      <g transform="translate(335.235114 306.630437) scale(0.1 -0.1)">
       <defs>
        <path id="DejaVuSans-34" d="M 2419 4116 
L 825 1625 
L 2419 1625 
L 2419 4116 
z
M 2253 4666 
L 3047 4666 
L 3047 1625 
L 3713 1625 
L 3713 1100 
L 3047 1100 
L 3047 0 
L 2419 0 
L 2419 1100 
L 313 1100 
L 313 1709 
L 2253 4666 
z
" transform="scale(0.015625)"/>
       </defs>
       <use xlink:href="#DejaVuSans-34"/>
      </g>
     </g>
    </g>
    <g id="xtick_6">
     <g id="line2d_6">
      <g>
       <use xlink:href="#m12bc809da4" x="403.347273" y="292.032" style="stroke: #000000; stroke-width: 0.8"/>
      </g>
     </g>
     <g id="text_6">
      <!-- 5 -->
      <g transform="translate(400.166023 306.630437) scale(0.1 -0.1)">
       <defs>
        <path id="DejaVuSans-35" d="M 691 4666 
L 3169 4666 
L 3169 4134 
L 1269 4134 
L 1269 2991 
Q 1406 3038 1543 3061 
Q 1681 3084 1819 3084 
Q 2600 3084 3056 2656 
Q 3513 2228 3513 1497 
Q 3513 744 3044 326 
Q 2575 -91 1722 -91 
Q 1428 -91 1123 -41 
Q 819 9 494 109 
L 494 744 
Q 775 591 1075 516 
Q 1375 441 1709 441 
Q 2250 441 2565 725 
Q 2881 1009 2881 1497 
Q 2881 1984 2565 2268 
Q 2250 2553 1709 2553 
Q 1456 2553 1204 2497 
Q 953 2441 691 2322 
L 691 4666 
z
" transform="scale(0.015625)"/>
       </defs>
       <use xlink:href="#DejaVuSans-35"/>
      </g>
     </g>
    </g>
    <g id="text_7">
     <!-- x -->
     <g transform="translate(62.46 320.308562) scale(0.1 -0.1)">
      <defs>
       <path id="DejaVuSans-78" d="M 3513 3500 
L 2247 1797 
L 3578 0 
L 2900 0 
L 1881 1375 
L 863 0 
L 184 0 
L 1544 1831 
L 300 3500 
L 978 3500 
L 1906 2253 
L 2834 3500 
L 3513 3500 
z
" transform="scale(0.015625)"/>
      </defs>
      <use xlink:href="#DejaVuSans-78"/>
     </g>
     <!-- 0 - Absorber process tank -->
     <g transform="translate(62.46 331.506375) scale(0.1 -0.1)">
      <defs>
       <path id="DejaVuSans-20" transform="scale(0.015625)"/>
       <path id="DejaVuSans-2d" d="M 313 2009 
L 1997 2009 
L 1997 1497 
L 313 1497 
L 313 2009 
z
" transform="scale(0.015625)"/>
       <path id="DejaVuSans-41" d="M 2188 4044 
L 1331 1722 
L 3047 1722 
L 2188 4044 
z
M 1831 4666 
L 2547 4666 
L 4325 0 
L 3669 0 
L 3244 1197 
L 1141 1197 
L 716 0 
L 50 0 
L 1831 4666 
z
" transform="scale(0.015625)"/>
       <path id="DejaVuSans-62" d="M 3116 1747 
Q 3116 2381 2855 2742 
Q 2594 3103 2138 3103 
Q 1681 3103 1420 2742 
Q 1159 2381 1159 1747 
Q 1159 1113 1420 752 
Q 1681 391 2138 391 
Q 2594 391 2855 752 
Q 3116 1113 3116 1747 
z
M 1159 2969 
Q 1341 3281 1617 3432 
Q 1894 3584 2278 3584 
Q 2916 3584 3314 3078 
Q 3713 2572 3713 1747 
Q 3713 922 3314 415 
Q 2916 -91 2278 -91 
Q 1894 -91 1617 61 
Q 1341 213 1159 525 
L 1159 0 
L 581 0 
L 581 4863 
L 1159 4863 
L 1159 2969 
z
" transform="scale(0.015625)"/>
       <path id="DejaVuSans-73" d="M 2834 3397 
L 2834 2853 
Q 2591 2978 2328 3040 
Q 2066 3103 1784 3103 
Q 1356 3103 1142 2972 
Q 928 2841 928 2578 
Q 928 2378 1081 2264 
Q 1234 2150 1697 2047 
L 1894 2003 
Q 2506 1872 2764 1633 
Q 3022 1394 3022 966 
Q 3022 478 2636 193 
Q 2250 -91 1575 -91 
Q 1294 -91 989 -36 
Q 684 19 347 128 
L 347 722 
Q 666 556 975 473 
Q 1284 391 1588 391 
Q 1994 391 2212 530 
Q 2431 669 2431 922 
Q 2431 1156 2273 1281 
Q 2116 1406 1581 1522 
L 1381 1569 
Q 847 1681 609 1914 
Q 372 2147 372 2553 
Q 372 3047 722 3315 
Q 1072 3584 1716 3584 
Q 2034 3584 2315 3537 
Q 2597 3491 2834 3397 
z
" transform="scale(0.015625)"/>
       <path id="DejaVuSans-6f" d="M 1959 3097 
Q 1497 3097 1228 2736 
Q 959 2375 959 1747 
Q 959 1119 1226 758 
Q 1494 397 1959 397 
Q 2419 397 2687 759 
Q 2956 1122 2956 1747 
Q 2956 2369 2687 2733 
Q 2419 3097 1959 3097 
z
M 1959 3584 
Q 2709 3584 3137 3096 
Q 3566 2609 3566 1747 
Q 3566 888 3137 398 
Q 2709 -91 1959 -91 
Q 1206 -91 779 398 
Q 353 888 353 1747 
Q 353 2609 779 3096 
Q 1206 3584 1959 3584 
z
" transform="scale(0.015625)"/>
       <path id="DejaVuSans-72" d="M 2631 2963 
Q 2534 3019 2420 3045 
Q 2306 3072 2169 3072 
Q 1681 3072 1420 2755 
Q 1159 2438 1159 1844 
L 1159 0 
L 581 0 
L 581 3500 
L 1159 3500 
L 1159 2956 
Q 1341 3275 1631 3429 
Q 1922 3584 2338 3584 
Q 2397 3584 2469 3576 
Q 2541 3569 2628 3553 
L 2631 2963 
z
" transform="scale(0.015625)"/>
       <path id="DejaVuSans-65" d="M 3597 1894 
L 3597 1613 
L 953 1613 
Q 991 1019 1311 708 
Q 1631 397 2203 397 
Q 2534 397 2845 478 
Q 3156 559 3463 722 
L 3463 178 
Q 3153 47 2828 -22 
Q 2503 -91 2169 -91 
Q 1331 -91 842 396 
Q 353 884 353 1716 
Q 353 2575 817 3079 
Q 1281 3584 2069 3584 
Q 2775 3584 3186 3129 
Q 3597 2675 3597 1894 
z
M 3022 2063 
Q 3016 2534 2758 2815 
Q 2500 3097 2075 3097 
Q 1594 3097 1305 2825 
Q 1016 2553 972 2059 
L 3022 2063 
z
" transform="scale(0.015625)"/>
       <path id="DejaVuSans-70" d="M 1159 525 
L 1159 -1331 
L 581 -1331 
L 581 3500 
L 1159 3500 
L 1159 2969 
Q 1341 3281 1617 3432 
Q 1894 3584 2278 3584 
Q 2916 3584 3314 3078 
Q 3713 2572 3713 1747 
Q 3713 922 3314 415 
Q 2916 -91 2278 -91 
Q 1894 -91 1617 61 
Q 1341 213 1159 525 
z
M 3116 1747 
Q 3116 2381 2855 2742 
Q 2594 3103 2138 3103 
Q 1681 3103 1420 2742 
Q 1159 2381 1159 1747 
Q 1159 1113 1420 752 
Q 1681 391 2138 391 
Q 2594 391 2855 752 
Q 3116 1113 3116 1747 
z
" transform="scale(0.015625)"/>
       <path id="DejaVuSans-63" d="M 3122 3366 
L 3122 2828 
Q 2878 2963 2633 3030 
Q 2388 3097 2138 3097 
Q 1578 3097 1268 2742 
Q 959 2388 959 1747 
Q 959 1106 1268 751 
Q 1578 397 2138 397 
Q 2388 397 2633 464 
Q 2878 531 3122 666 
L 3122 134 
Q 2881 22 2623 -34 
Q 2366 -91 2075 -91 
Q 1284 -91 818 406 
Q 353 903 353 1747 
Q 353 2603 823 3093 
Q 1294 3584 2113 3584 
Q 2378 3584 2631 3529 
Q 2884 3475 3122 3366 
z
" transform="scale(0.015625)"/>
       <path id="DejaVuSans-74" d="M 1172 4494 
L 1172 3500 
L 2356 3500 
L 2356 3053 
L 1172 3053 
L 1172 1153 
Q 1172 725 1289 603 
Q 1406 481 1766 481 
L 2356 481 
L 2356 0 
L 1766 0 
Q 1100 0 847 248 
Q 594 497 594 1153 
L 594 3053 
L 172 3053 
L 172 3500 
L 594 3500 
L 594 4494 
L 1172 4494 
z
" transform="scale(0.015625)"/>
       <path id="DejaVuSans-61" d="M 2194 1759 
Q 1497 1759 1228 1600 
Q 959 1441 959 1056 
Q 959 750 1161 570 
Q 1363 391 1709 391 
Q 2188 391 2477 730 
Q 2766 1069 2766 1631 
L 2766 1759 
L 2194 1759 
z
M 3341 1997 
L 3341 0 
L 2766 0 
L 2766 531 
Q 2569 213 2275 61 
Q 1981 -91 1556 -91 
Q 1019 -91 701 211 
Q 384 513 384 1019 
Q 384 1609 779 1909 
Q 1175 2209 1959 2209 
L 2766 2209 
L 2766 2266 
Q 2766 2663 2505 2880 
Q 2244 3097 1772 3097 
Q 1472 3097 1187 3025 
Q 903 2953 641 2809 
L 641 3341 
Q 956 3463 1253 3523 
Q 1550 3584 1831 3584 
Q 2591 3584 2966 3190 
Q 3341 2797 3341 1997 
z
" transform="scale(0.015625)"/>
       <path id="DejaVuSans-6e" d="M 3513 2113 
L 3513 0 
L 2938 0 
L 2938 2094 
Q 2938 2591 2744 2837 
Q 2550 3084 2163 3084 
Q 1697 3084 1428 2787 
Q 1159 2491 1159 1978 
L 1159 0 
L 581 0 
L 581 3500 
L 1159 3500 
L 1159 2956 
Q 1366 3272 1645 3428 
Q 1925 3584 2291 3584 
Q 2894 3584 3203 3211 
Q 3513 2838 3513 2113 
z
" transform="scale(0.015625)"/>
       <path id="DejaVuSans-6b" d="M 581 4863 
L 1159 4863 
L 1159 1991 
L 2875 3500 
L 3609 3500 
L 1753 1863 
L 3688 0 
L 2938 0 
L 1159 1709 
L 1159 0 
L 581 0 
L 581 4863 
z
" transform="scale(0.015625)"/>
      </defs>
      <use xlink:href="#DejaVuSans-30"/>
      <use xlink:href="#DejaVuSans-20" transform="translate(63.623047 0)"/>
      <use xlink:href="#DejaVuSans-2d" transform="translate(95.410156 0)"/>
      <use xlink:href="#DejaVuSans-20" transform="translate(131.494141 0)"/>
      <use xlink:href="#DejaVuSans-41" transform="translate(163.28125 0)"/>
      <use xlink:href="#DejaVuSans-62" transform="translate(231.689453 0)"/>
      <use xlink:href="#DejaVuSans-73" transform="translate(295.166016 0)"/>
      <use xlink:href="#DejaVuSans-6f" transform="translate(347.265625 0)"/>
      <use xlink:href="#DejaVuSans-72" transform="translate(408.447266 0)"/>
      <use xlink:href="#DejaVuSans-62" transform="translate(449.560547 0)"/>
      <use xlink:href="#DejaVuSans-65" transform="translate(513.037109 0)"/>
      <use xlink:href="#DejaVuSans-72" transform="translate(574.560547 0)"/>
      <use xlink:href="#DejaVuSans-20" transform="translate(615.673828 0)"/>
      <use xlink:href="#DejaVuSans-70" transform="translate(647.460938 0)"/>
      <use xlink:href="#DejaVuSans-72" transform="translate(710.9375 0)"/>
      <use xlink:href="#DejaVuSans-6f" transform="translate(749.800781 0)"/>
      <use xlink:href="#DejaVuSans-63" transform="translate(810.982422 0)"/>
      <use xlink:href="#DejaVuSans-65" transform="translate(865.962891 0)"/>
      <use xlink:href="#DejaVuSans-73" transform="translate(927.486328 0)"/>
      <use xlink:href="#DejaVuSans-73" transform="translate(979.585938 0)"/>
      <use xlink:href="#DejaVuSans-20" transform="translate(1031.685547 0)"/>
      <use xlink:href="#DejaVuSans-74" transform="translate(1063.472656 0)"/>
      <use xlink:href="#DejaVuSans-61" transform="translate(1102.681641 0)"/>
      <use xlink:href="#DejaVuSans-6e" transform="translate(1163.960938 0)"/>
      <use xlink:href="#DejaVuSans-6b" transform="translate(1227.339844 0)"/>
     </g>
     <!-- 1 - tank bottom (excluded) -->
     <g transform="translate(62.46 342.704187) scale(0.1 -0.1)">
      <defs>
       <path id="DejaVuSans-6d" d="M 3328 2828 
Q 3544 3216 3844 3400 
Q 4144 3584 4550 3584 
Q 5097 3584 5394 3201 
Q 5691 2819 5691 2113 
L 5691 0 
L 5113 0 
L 5113 2094 
Q 5113 2597 4934 2840 
Q 4756 3084 4391 3084 
Q 3944 3084 3684 2787 
Q 3425 2491 3425 1978 
L 3425 0 
L 2847 0 
L 2847 2094 
Q 2847 2600 2669 2842 
Q 2491 3084 2119 3084 
Q 1678 3084 1418 2786 
Q 1159 2488 1159 1978 
L 1159 0 
L 581 0 
L 581 3500 
L 1159 3500 
L 1159 2956 
Q 1356 3278 1631 3431 
Q 1906 3584 2284 3584 
Q 2666 3584 2933 3390 
Q 3200 3197 3328 2828 
z
" transform="scale(0.015625)"/>
       <path id="DejaVuSans-28" d="M 1984 4856 
Q 1566 4138 1362 3434 
Q 1159 2731 1159 2009 
Q 1159 1288 1364 580 
Q 1569 -128 1984 -844 
L 1484 -844 
Q 1016 -109 783 600 
Q 550 1309 550 2009 
Q 550 2706 781 3412 
Q 1013 4119 1484 4856 
L 1984 4856 
z
" transform="scale(0.015625)"/>
       <path id="DejaVuSans-6c" d="M 603 4863 
L 1178 4863 
L 1178 0 
L 603 0 
L 603 4863 
z
" transform="scale(0.015625)"/>
       <path id="DejaVuSans-75" d="M 544 1381 
L 544 3500 
L 1119 3500 
L 1119 1403 
Q 1119 906 1312 657 
Q 1506 409 1894 409 
Q 2359 409 2629 706 
Q 2900 1003 2900 1516 
L 2900 3500 
L 3475 3500 
L 3475 0 
L 2900 0 
L 2900 538 
Q 2691 219 2414 64 
Q 2138 -91 1772 -91 
Q 1169 -91 856 284 
Q 544 659 544 1381 
z
M 1991 3584 
L 1991 3584 
z
" transform="scale(0.015625)"/>
       <path id="DejaVuSans-64" d="M 2906 2969 
L 2906 4863 
L 3481 4863 
L 3481 0 
L 2906 0 
L 2906 525 
Q 2725 213 2448 61 
Q 2172 -91 1784 -91 
Q 1150 -91 751 415 
Q 353 922 353 1747 
Q 353 2572 751 3078 
Q 1150 3584 1784 3584 
Q 2172 3584 2448 3432 
Q 2725 3281 2906 2969 
z
M 947 1747 
Q 947 1113 1208 752 
Q 1469 391 1925 391 
Q 2381 391 2643 752 
Q 2906 1113 2906 1747 
Q 2906 2381 2643 2742 
Q 2381 3103 1925 3103 
Q 1469 3103 1208 2742 
Q 947 2381 947 1747 
z
" transform="scale(0.015625)"/>
       <path id="DejaVuSans-29" d="M 513 4856 
L 1013 4856 
Q 1481 4119 1714 3412 
Q 1947 2706 1947 2009 
Q 1947 1309 1714 600 
Q 1481 -109 1013 -844 
L 513 -844 
Q 928 -128 1133 580 
Q 1338 1288 1338 2009 
Q 1338 2731 1133 3434 
Q 928 4138 513 4856 
z
" transform="scale(0.015625)"/>
      </defs>
      <use xlink:href="#DejaVuSans-31"/>
      <use xlink:href="#DejaVuSans-20" transform="translate(63.623047 0)"/>
      <use xlink:href="#DejaVuSans-2d" transform="translate(95.410156 0)"/>
      <use xlink:href="#DejaVuSans-20" transform="translate(131.494141 0)"/>
      <use xlink:href="#DejaVuSans-74" transform="translate(163.28125 0)"/>
      <use xlink:href="#DejaVuSans-61" transform="translate(202.490234 0)"/>
      <use xlink:href="#DejaVuSans-6e" transform="translate(263.769531 0)"/>
      <use xlink:href="#DejaVuSans-6b" transform="translate(327.148438 0)"/>
      <use xlink:href="#DejaVuSans-20" transform="translate(385.058594 0)"/>
      <use xlink:href="#DejaVuSans-62" transform="translate(416.845703 0)"/>
      <use xlink:href="#DejaVuSans-6f" transform="translate(480.322266 0)"/>
      <use xlink:href="#DejaVuSans-74" transform="translate(541.503906 0)"/>
      <use xlink:href="#DejaVuSans-74" transform="translate(580.712891 0)"/>
      <use xlink:href="#DejaVuSans-6f" transform="translate(619.921875 0)"/>
      <use xlink:href="#DejaVuSans-6d" transform="translate(681.103516 0)"/>
      <use xlink:href="#DejaVuSans-20" transform="translate(778.515625 0)"/>
      <use xlink:href="#DejaVuSans-28" transform="translate(810.302734 0)"/>
      <use xlink:href="#DejaVuSans-65" transform="translate(849.316406 0)"/>
      <use xlink:href="#DejaVuSans-78" transform="translate(909.089844 0)"/>
      <use xlink:href="#DejaVuSans-63" transform="translate(966.519531 0)"/>
      <use xlink:href="#DejaVuSans-6c" transform="translate(1021.5 0)"/>
      <use xlink:href="#DejaVuSans-75" transform="translate(1049.283203 0)"/>
      <use xlink:href="#DejaVuSans-64" transform="translate(1112.662109 0)"/>
      <use xlink:href="#DejaVuSans-65" transform="translate(1176.138672 0)"/>
      <use xlink:href="#DejaVuSans-64" transform="translate(1237.662109 0)"/>
      <use xlink:href="#DejaVuSans-29" transform="translate(1301.138672 0)"/>
     </g>
     <!-- 2 - pack bottom -->
     <g transform="translate(62.46 353.902) scale(0.1 -0.1)">
      <use xlink:href="#DejaVuSans-32"/>
      <use xlink:href="#DejaVuSans-20" transform="translate(63.623047 0)"/>
      <use xlink:href="#DejaVuSans-2d" transform="translate(95.410156 0)"/>
      <use xlink:href="#DejaVuSans-20" transform="translate(131.494141 0)"/>
      <use xlink:href="#DejaVuSans-70" transform="translate(163.28125 0)"/>
      <use xlink:href="#DejaVuSans-61" transform="translate(226.757812 0)"/>
      <use xlink:href="#DejaVuSans-63" transform="translate(288.037109 0)"/>
      <use xlink:href="#DejaVuSans-6b" transform="translate(343.017578 0)"/>
      <use xlink:href="#DejaVuSans-20" transform="translate(400.927734 0)"/>
      <use xlink:href="#DejaVuSans-62" transform="translate(432.714844 0)"/>
      <use xlink:href="#DejaVuSans-6f" transform="translate(496.191406 0)"/>
      <use xlink:href="#DejaVuSans-74" transform="translate(557.373047 0)"/>
      <use xlink:href="#DejaVuSans-74" transform="translate(596.582031 0)"/>
      <use xlink:href="#DejaVuSans-6f" transform="translate(635.791016 0)"/>
      <use xlink:href="#DejaVuSans-6d" transform="translate(696.972656 0)"/>
     </g>
     <!-- 3 - pack mid -->
     <g transform="translate(62.46 365.099812) scale(0.1 -0.1)">
      <defs>
       <path id="DejaVuSans-69" d="M 603 3500 
L 1178 3500 
L 1178 0 
L 603 0 
L 603 3500 
z
M 603 4863 
L 1178 4863 
L 1178 4134 
L 603 4134 
L 603 4863 
z
" transform="scale(0.015625)"/>
      </defs>
      <use xlink:href="#DejaVuSans-33"/>
      <use xlink:href="#DejaVuSans-20" transform="translate(63.623047 0)"/>
      <use xlink:href="#DejaVuSans-2d" transform="translate(95.410156 0)"/>
      <use xlink:href="#DejaVuSans-20" transform="translate(131.494141 0)"/>
      <use xlink:href="#DejaVuSans-70" transform="translate(163.28125 0)"/>
      <use xlink:href="#DejaVuSans-61" transform="translate(226.757812 0)"/>
      <use xlink:href="#DejaVuSans-63" transform="translate(288.037109 0)"/>
      <use xlink:href="#DejaVuSans-6b" transform="translate(343.017578 0)"/>
      <use xlink:href="#DejaVuSans-20" transform="translate(400.927734 0)"/>
      <use xlink:href="#DejaVuSans-6d" transform="translate(432.714844 0)"/>
      <use xlink:href="#DejaVuSans-69" transform="translate(530.126953 0)"/>
      <use xlink:href="#DejaVuSans-64" transform="translate(557.910156 0)"/>
     </g>
     <!-- 4 - pack top -->
     <g transform="translate(62.46 376.297625) scale(0.1 -0.1)">
      <use xlink:href="#DejaVuSans-34"/>
      <use xlink:href="#DejaVuSans-20" transform="translate(63.623047 0)"/>
      <use xlink:href="#DejaVuSans-2d" transform="translate(95.410156 0)"/>
      <use xlink:href="#DejaVuSans-20" transform="translate(131.494141 0)"/>
      <use xlink:href="#DejaVuSans-70" transform="translate(163.28125 0)"/>
      <use xlink:href="#DejaVuSans-61" transform="translate(226.757812 0)"/>
      <use xlink:href="#DejaVuSans-63" transform="translate(288.037109 0)"/>
      <use xlink:href="#DejaVuSans-6b" transform="translate(343.017578 0)"/>
      <use xlink:href="#DejaVuSans-20" transform="translate(400.927734 0)"/>
      <use xlink:href="#DejaVuSans-74" transform="translate(432.714844 0)"/>
      <use xlink:href="#DejaVuSans-6f" transform="translate(471.923828 0)"/>
      <use xlink:href="#DejaVuSans-70" transform="translate(533.105469 0)"/>
     </g>
     <!-- 5 - gas outlet -->
     <g transform="translate(62.46 387.495437) scale(0.1 -0.1)">
      <defs>
       <path id="DejaVuSans-67" d="M 2906 1791 
Q 2906 2416 2648 2759 
Q 2391 3103 1925 3103 
Q 1463 3103 1205 2759 
Q 947 2416 947 1791 
Q 947 1169 1205 825 
Q 1463 481 1925 481 
Q 2391 481 2648 825 
Q 2906 1169 2906 1791 
z
M 3481 434 
Q 3481 -459 3084 -895 
Q 2688 -1331 1869 -1331 
Q 1566 -1331 1297 -1286 
Q 1028 -1241 775 -1147 
L 775 -588 
Q 1028 -725 1275 -790 
Q 1522 -856 1778 -856 
Q 2344 -856 2625 -561 
Q 2906 -266 2906 331 
L 2906 616 
Q 2728 306 2450 153 
Q 2172 0 1784 0 
Q 1141 0 747 490 
Q 353 981 353 1791 
Q 353 2603 747 3093 
Q 1141 3584 1784 3584 
Q 2172 3584 2450 3431 
Q 2728 3278 2906 2969 
L 2906 3500 
L 3481 3500 
L 3481 434 
z
" transform="scale(0.015625)"/>
      </defs>
      <use xlink:href="#DejaVuSans-35"/>
      <use xlink:href="#DejaVuSans-20" transform="translate(63.623047 0)"/>
      <use xlink:href="#DejaVuSans-2d" transform="translate(95.410156 0)"/>
      <use xlink:href="#DejaVuSans-20" transform="translate(131.494141 0)"/>
      <use xlink:href="#DejaVuSans-67" transform="translate(163.28125 0)"/>
      <use xlink:href="#DejaVuSans-61" transform="translate(226.757812 0)"/>
      <use xlink:href="#DejaVuSans-73" transform="translate(288.037109 0)"/>
      <use xlink:href="#DejaVuSans-20" transform="translate(340.136719 0)"/>
      <use xlink:href="#DejaVuSans-6f" transform="translate(371.923828 0)"/>
      <use xlink:href="#DejaVuSans-75" transform="translate(433.105469 0)"/>
      <use xlink:href="#DejaVuSans-74" transform="translate(496.484375 0)"/>
      <use xlink:href="#DejaVuSans-6c" transform="translate(535.693359 0)"/>
      <use xlink:href="#DejaVuSans-65" transform="translate(563.476562 0)"/>
      <use xlink:href="#DejaVuSans-74" transform="translate(625 0)"/>
     </g>
    </g>
   </g>
   <g id="matplotlib.axis_2">
    <g id="ytick_1">
     <g id="line2d_7">
      <defs>
       <path id="m02438aabd1" d="M 0 0 
L -3.5 0 
" style="stroke: #000000; stroke-width: 0.8"/>
      </defs>
      <g>
       <use xlink:href="#m02438aabd1" x="62.46" y="283.821755" style="stroke: #000000; stroke-width: 0.8"/>
      </g>
     </g>
     <g id="text_8">
      <!-- 29.6 -->
      <g transform="translate(33.194375 287.620974) scale(0.1 -0.1)">
       <defs>
        <path id="DejaVuSans-39" d="M 703 97 
L 703 672 
Q 941 559 1184 500 
Q 1428 441 1663 441 
Q 2288 441 2617 861 
Q 2947 1281 2994 2138 
Q 2813 1869 2534 1725 
Q 2256 1581 1919 1581 
Q 1219 1581 811 2004 
Q 403 2428 403 3163 
Q 403 3881 828 4315 
Q 1253 4750 1959 4750 
Q 2769 4750 3195 4129 
Q 3622 3509 3622 2328 
Q 3622 1225 3098 567 
Q 2575 -91 1691 -91 
Q 1453 -91 1209 -44 
Q 966 3 703 97 
z
M 1959 2075 
Q 2384 2075 2632 2365 
Q 2881 2656 2881 3163 
Q 2881 3666 2632 3958 
Q 2384 4250 1959 4250 
Q 1534 4250 1286 3958 
Q 1038 3666 1038 3163 
Q 1038 2656 1286 2365 
Q 1534 2075 1959 2075 
z
" transform="scale(0.015625)"/>
        <path id="DejaVuSans-2e" d="M 684 794 
L 1344 794 
L 1344 0 
L 684 0 
L 684 794 
z
" transform="scale(0.015625)"/>
        <path id="DejaVuSans-36" d="M 2113 2584 
Q 1688 2584 1439 2293 
Q 1191 2003 1191 1497 
Q 1191 994 1439 701 
Q 1688 409 2113 409 
Q 2538 409 2786 701 
Q 3034 994 3034 1497 
Q 3034 2003 2786 2293 
Q 2538 2584 2113 2584 
z
M 3366 4563 
L 3366 3988 
Q 3128 4100 2886 4159 
Q 2644 4219 2406 4219 
Q 1781 4219 1451 3797 
Q 1122 3375 1075 2522 
Q 1259 2794 1537 2939 
Q 1816 3084 2150 3084 
Q 2853 3084 3261 2657 
Q 3669 2231 3669 1497 
Q 3669 778 3244 343 
Q 2819 -91 2113 -91 
Q 1303 -91 875 529 
Q 447 1150 447 2328 
Q 447 3434 972 4092 
Q 1497 4750 2381 4750 
Q 2619 4750 2861 4703 
Q 3103 4656 3366 4563 
z
" transform="scale(0.015625)"/>
       </defs>
       <use xlink:href="#DejaVuSans-32"/>
       <use xlink:href="#DejaVuSans-39" transform="translate(63.623047 0)"/>
       <use xlink:href="#DejaVuSans-2e" transform="translate(127.246094 0)"/>
       <use xlink:href="#DejaVuSans-36" transform="translate(159.033203 0)"/>
      </g>
     </g>
    </g>
    <g id="ytick_2">
     <g id="line2d_8">
      <g>
       <use xlink:href="#m02438aabd1" x="62.46" y="245.467897" style="stroke: #000000; stroke-width: 0.8"/>
      </g>
     </g>
     <g id="text_9">
      <!-- 29.8 -->
      <g transform="translate(33.194375 249.267116) scale(0.1 -0.1)">
       <defs>
        <path id="DejaVuSans-38" d="M 2034 2216 
Q 1584 2216 1326 1975 
Q 1069 1734 1069 1313 
Q 1069 891 1326 650 
Q 1584 409 2034 409 
Q 2484 409 2743 651 
Q 3003 894 3003 1313 
Q 3003 1734 2745 1975 
Q 2488 2216 2034 2216 
z
M 1403 2484 
Q 997 2584 770 2862 
Q 544 3141 544 3541 
Q 544 4100 942 4425 
Q 1341 4750 2034 4750 
Q 2731 4750 3128 4425 
Q 3525 4100 3525 3541 
Q 3525 3141 3298 2862 
Q 3072 2584 2669 2484 
Q 3125 2378 3379 2068 
Q 3634 1759 3634 1313 
Q 3634 634 3220 271 
Q 2806 -91 2034 -91 
Q 1263 -91 848 271 
Q 434 634 434 1313 
Q 434 1759 690 2068 
Q 947 2378 1403 2484 
z
M 1172 3481 
Q 1172 3119 1398 2916 
Q 1625 2713 2034 2713 
Q 2441 2713 2670 2916 
Q 2900 3119 2900 3481 
Q 2900 3844 2670 4047 
Q 2441 4250 2034 4250 
Q 1625 4250 1398 4047 
Q 1172 3844 1172 3481 
z
" transform="scale(0.015625)"/>
       </defs>
       <use xlink:href="#DejaVuSans-32"/>
       <use xlink:href="#DejaVuSans-39" transform="translate(63.623047 0)"/>
       <use xlink:href="#DejaVuSans-2e" transform="translate(127.246094 0)"/>
       <use xlink:href="#DejaVuSans-38" transform="translate(159.033203 0)"/>
      </g>
     </g>
    </g>
    <g id="ytick_3">
     <g id="line2d_9">
      <g>
       <use xlink:href="#m02438aabd1" x="62.46" y="207.114039" style="stroke: #000000; stroke-width: 0.8"/>
      </g>
     </g>
     <g id="text_10">
      <!-- 30.0 -->
      <g transform="translate(33.194375 210.913257) scale(0.1 -0.1)">
       <use xlink:href="#DejaVuSans-33"/>
       <use xlink:href="#DejaVuSans-30" transform="translate(63.623047 0)"/>
       <use xlink:href="#DejaVuSans-2e" transform="translate(127.246094 0)"/>
       <use xlink:href="#DejaVuSans-30" transform="translate(159.033203 0)"/>
      </g>
     </g>
    </g>
    <g id="ytick_4">
     <g id="line2d_10">
      <g>
       <use xlink:href="#m02438aabd1" x="62.46" y="168.76018" style="stroke: #000000; stroke-width: 0.8"/>
      </g>
     </g>
     <g id="text_11">
      <!-- 30.2 -->
      <g transform="translate(33.194375 172.559399) scale(0.1 -0.1)">
       <use xlink:href="#DejaVuSans-33"/>
       <use xlink:href="#DejaVuSans-30" transform="translate(63.623047 0)"/>
       <use xlink:href="#DejaVuSans-2e" transform="translate(127.246094 0)"/>
       <use xlink:href="#DejaVuSans-32" transform="translate(159.033203 0)"/>
      </g>
     </g>
    </g>
    <g id="ytick_5">
     <g id="line2d_11">
      <g>
       <use xlink:href="#m02438aabd1" x="62.46" y="130.406322" style="stroke: #000000; stroke-width: 0.8"/>
      </g>
     </g>
     <g id="text_12">
      <!-- 30.4 -->
      <g transform="translate(33.194375 134.205541) scale(0.1 -0.1)">
       <use xlink:href="#DejaVuSans-33"/>
       <use xlink:href="#DejaVuSans-30" transform="translate(63.623047 0)"/>
       <use xlink:href="#DejaVuSans-2e" transform="translate(127.246094 0)"/>
       <use xlink:href="#DejaVuSans-34" transform="translate(159.033203 0)"/>
      </g>
     </g>
    </g>
    <g id="ytick_6">
     <g id="line2d_12">
      <g>
       <use xlink:href="#m02438aabd1" x="62.46" y="92.052463" style="stroke: #000000; stroke-width: 0.8"/>
      </g>
     </g>
     <g id="text_13">
      <!-- 30.6 -->
      <g transform="translate(33.194375 95.851682) scale(0.1 -0.1)">
       <use xlink:href="#DejaVuSans-33"/>
       <use xlink:href="#DejaVuSans-30" transform="translate(63.623047 0)"/>
       <use xlink:href="#DejaVuSans-2e" transform="translate(127.246094 0)"/>
       <use xlink:href="#DejaVuSans-36" transform="translate(159.033203 0)"/>
      </g>
     </g>
    </g>
    <g id="ytick_7">
     <g id="line2d_13">
      <g>
       <use xlink:href="#m02438aabd1" x="62.46" y="53.698605" style="stroke: #000000; stroke-width: 0.8"/>
      </g>
     </g>
     <g id="text_14">
      <!-- 30.8 -->
      <g transform="translate(33.194375 57.497824) scale(0.1 -0.1)">
       <use xlink:href="#DejaVuSans-33"/>
       <use xlink:href="#DejaVuSans-30" transform="translate(63.623047 0)"/>
       <use xlink:href="#DejaVuSans-2e" transform="translate(127.246094 0)"/>
       <use xlink:href="#DejaVuSans-38" transform="translate(159.033203 0)"/>
      </g>
     </g>
    </g>
    <g id="text_15">
     <!-- Temperature [°C] -->
     <g transform="translate(27.114687 202.127562) rotate(-90) scale(0.1 -0.1)">
      <defs>
       <path id="DejaVuSans-54" d="M -19 4666 
L 3928 4666 
L 3928 4134 
L 2272 4134 
L 2272 0 
L 1638 0 
L 1638 4134 
L -19 4134 
L -19 4666 
z
" transform="scale(0.015625)"/>
       <path id="DejaVuSans-5b" d="M 550 4863 
L 1875 4863 
L 1875 4416 
L 1125 4416 
L 1125 -397 
L 1875 -397 
L 1875 -844 
L 550 -844 
L 550 4863 
z
" transform="scale(0.015625)"/>
       <path id="DejaVuSans-b0" d="M 1600 4347 
Q 1350 4347 1178 4173 
Q 1006 4000 1006 3750 
Q 1006 3503 1178 3333 
Q 1350 3163 1600 3163 
Q 1850 3163 2022 3333 
Q 2194 3503 2194 3750 
Q 2194 3997 2020 4172 
Q 1847 4347 1600 4347 
z
M 1600 4750 
Q 1800 4750 1984 4673 
Q 2169 4597 2303 4453 
Q 2447 4313 2519 4134 
Q 2591 3956 2591 3750 
Q 2591 3338 2302 3052 
Q 2013 2766 1594 2766 
Q 1172 2766 890 3047 
Q 609 3328 609 3750 
Q 609 4169 896 4459 
Q 1184 4750 1600 4750 
z
" transform="scale(0.015625)"/>
       <path id="DejaVuSans-43" d="M 4122 4306 
L 4122 3641 
Q 3803 3938 3442 4084 
Q 3081 4231 2675 4231 
Q 1875 4231 1450 3742 
Q 1025 3253 1025 2328 
Q 1025 1406 1450 917 
Q 1875 428 2675 428 
Q 3081 428 3442 575 
Q 3803 722 4122 1019 
L 4122 359 
Q 3791 134 3420 21 
Q 3050 -91 2638 -91 
Q 1578 -91 968 557 
Q 359 1206 359 2328 
Q 359 3453 968 4101 
Q 1578 4750 2638 4750 
Q 3056 4750 3426 4639 
Q 3797 4528 4122 4306 
z
" transform="scale(0.015625)"/>
       <path id="DejaVuSans-5d" d="M 1947 4863 
L 1947 -844 
L 622 -844 
L 622 -397 
L 1369 -397 
L 1369 4416 
L 622 4416 
L 622 4863 
L 1947 4863 
z
" transform="scale(0.015625)"/>
      </defs>
      <use xlink:href="#DejaVuSans-54"/>
      <use xlink:href="#DejaVuSans-65" transform="translate(44.083984 0)"/>
      <use xlink:href="#DejaVuSans-6d" transform="translate(105.607422 0)"/>
      <use xlink:href="#DejaVuSans-70" transform="translate(203.019531 0)"/>
      <use xlink:href="#DejaVuSans-65" transform="translate(266.496094 0)"/>
      <use xlink:href="#DejaVuSans-72" transform="translate(328.019531 0)"/>
      <use xlink:href="#DejaVuSans-61" transform="translate(369.132812 0)"/>
      <use xlink:href="#DejaVuSans-74" transform="translate(430.412109 0)"/>
      <use xlink:href="#DejaVuSans-75" transform="translate(469.621094 0)"/>
      <use xlink:href="#DejaVuSans-72" transform="translate(533 0)"/>
      <use xlink:href="#DejaVuSans-65" transform="translate(571.863281 0)"/>
      <use xlink:href="#DejaVuSans-20" transform="translate(633.386719 0)"/>
      <use xlink:href="#DejaVuSans-5b" transform="translate(665.173828 0)"/>
      <use xlink:href="#DejaVuSans-b0" transform="translate(704.1875 0)"/>
      <use xlink:href="#DejaVuSans-43" transform="translate(754.1875 0)"/>
      <use xlink:href="#DejaVuSans-5d" transform="translate(824.011719 0)"/>
     </g>
    </g>
   </g>
   <g id="line2d_14">
    <defs>
     <path id="m4652a25de3" d="M 0 3 
C 0.795609 3 1.55874 2.683901 2.12132 2.12132 
C 2.683901 1.55874 3 0.795609 3 0 
C 3 -0.795609 2.683901 -1.55874 2.12132 -2.12132 
C 1.55874 -2.683901 0.795609 -3 0 -3 
C -0.795609 -3 -1.55874 -2.683901 -2.12132 -2.12132 
C -2.683901 -1.55874 -3 -0.795609 -3 0 
C -3 0.795609 -2.683901 1.55874 -2.12132 2.12132 
C -1.55874 2.683901 -0.795609 3 0 3 
z
" style="stroke: #1f77b4"/>
    </defs>
    <g clip-path="url(#p820e9474fa)">
     <use xlink:href="#m4652a25de3" x="78.692727" y="74.153046" style="fill: #1f77b4; stroke: #1f77b4"/>
     <use xlink:href="#m4652a25de3" x="208.554545" y="238.406852" style="fill: #1f77b4; stroke: #1f77b4"/>
     <use xlink:href="#m4652a25de3" x="273.485455" y="256.52452" style="fill: #1f77b4; stroke: #1f77b4"/>
     <use xlink:href="#m4652a25de3" x="338.416364" y="279.936" style="fill: #1f77b4; stroke: #1f77b4"/>
    </g>
   </g>
   <g id="line2d_15">
    <defs>
     <path id="mb5ed5811d6" d="M 0 3 
C 0.795609 3 1.55874 2.683901 2.12132 2.12132 
C 2.683901 1.55874 3 0.795609 3 0 
C 3 -0.795609 2.683901 -1.55874 2.12132 -2.12132 
C 1.55874 -2.683901 0.795609 -3 0 -3 
C -0.795609 -3 -1.55874 -2.683901 -2.12132 -2.12132 
C -2.683901 -1.55874 -3 -0.795609 -3 0 
C -3 0.795609 -2.683901 1.55874 -2.12132 2.12132 
C -1.55874 2.683901 -0.795609 3 0 3 
z
" style="stroke: #ff7f0e"/>
    </defs>
    <g clip-path="url(#p820e9474fa)">
     <use xlink:href="#mb5ed5811d6" x="78.692727" y="38.016" style="fill: #ff7f0e; stroke: #ff7f0e"/>
     <use xlink:href="#mb5ed5811d6" x="208.554545" y="186.560813" style="fill: #ff7f0e; stroke: #ff7f0e"/>
     <use xlink:href="#mb5ed5811d6" x="273.485455" y="198.9474" style="fill: #ff7f0e; stroke: #ff7f0e"/>
     <use xlink:href="#mb5ed5811d6" x="338.416364" y="216.857604" style="fill: #ff7f0e; stroke: #ff7f0e"/>
    </g>
   </g>
   <g id="line2d_16">
    <path d="M 78.692727 56.229036 
L 83.246999 66.298521 
L 87.801272 75.858082 
L 92.355544 84.93354 
L 96.909816 93.549413 
L 101.464088 101.728972 
L 106.01836 109.494314 
L 110.572633 116.866414 
L 115.126905 123.865187 
L 120.331787 131.430856 
L 125.53667 138.56027 
L 130.741552 145.278584 
L 135.946435 151.609503 
L 141.151317 157.575366 
L 146.3562 163.197222 
L 151.561082 168.494908 
L 156.765965 173.487116 
L 161.970847 178.19146 
L 167.17573 182.62454 
L 173.031222 187.306951 
L 178.886715 191.686725 
L 184.742208 195.783423 
L 190.597701 199.615342 
L 196.453194 203.199594 
L 202.959297 206.911058 
L 209.4654 210.356963 
L 215.971503 213.55631 
L 223.128216 216.811834 
L 230.28493 219.812067 
L 237.441643 222.577026 
L 245.248967 225.346658 
L 253.056291 227.880222 
L 261.514225 230.381813 
L 269.972159 232.653257 
L 279.080703 234.866285 
L 288.839858 236.995543 
L 298.599013 238.900414 
L 309.008778 240.711546 
L 320.069153 242.414147 
L 331.780138 243.997391 
L 344.792345 245.525385 
L 358.455161 246.903406 
L 373.419198 248.1855 
L 389.684456 249.351899 
L 403.347273 250.177532 
L 403.347273 250.177532 
" clip-path="url(#p820e9474fa)" style="fill: none; stroke: #2ca02c; stroke-width: 1.5; stroke-linecap: square"/>
   </g>
   <g id="line2d_17">
    <path d="M 78.692727 56.229036 
L 83.246999 66.331468 
L 87.801272 75.920632 
L 92.355544 85.022607 
L 96.909816 93.662144 
L 101.464088 101.862738 
L 106.01836 109.646691 
L 110.572633 117.03517 
L 115.126905 124.048268 
L 120.331787 131.628008 
L 125.53667 138.769255 
L 130.741552 145.497379 
L 135.946435 151.836277 
L 141.151317 157.808467 
L 146.3562 163.435163 
L 151.561082 168.736352 
L 156.765965 173.730865 
L 161.970847 178.436443 
L 167.17573 182.869801 
L 173.031222 187.551513 
L 178.886715 191.929652 
L 184.742208 196.023902 
L 190.597701 199.852671 
L 196.453194 203.433174 
L 202.959297 207.139878 
L 209.4654 210.580505 
L 215.971503 213.774156 
L 223.128216 217.023035 
L 230.28493 220.016322 
L 237.441643 222.774124 
L 245.248967 225.535795 
L 253.056291 228.061321 
L 261.514225 230.5542 
L 269.972159 232.816998 
L 279.080703 235.020863 
L 288.839858 237.140539 
L 298.599013 239.036128 
L 309.008778 240.83774 
L 320.069153 242.530695 
L 331.780138 244.104284 
L 344.792345 245.622242 
L 358.455161 246.990514 
L 373.419198 248.26284 
L 389.684456 249.419663 
L 403.347273 250.238044 
L 403.347273 250.238044 
" clip-path="url(#p820e9474fa)" style="fill: none; stroke: #d62728; stroke-width: 1.5; stroke-linecap: square"/>
   </g>
   <g id="patch_3">
    <path d="M 62.46 292.032 
L 62.46 25.92 
" style="fill: none; stroke: #000000; stroke-width: 0.8; stroke-linejoin: miter; stroke-linecap: square"/>
   </g>
   <g id="patch_4">
    <path d="M 419.58 292.032 
L 419.58 25.92 
" style="fill: none; stroke: #000000; stroke-width: 0.8; stroke-linejoin: miter; stroke-linecap: square"/>
   </g>
   <g id="patch_5">
    <path d="M 62.46 292.032 
L 419.58 292.032 
" style="fill: none; stroke: #000000; stroke-width: 0.8; stroke-linejoin: miter; stroke-linecap: square"/>
   </g>
   <g id="patch_6">
    <path d="M 62.46 25.92 
L 419.58 25.92 
" style="fill: none; stroke: #000000; stroke-width: 0.8; stroke-linejoin: miter; stroke-linecap: square"/>
   </g>
   <g id="text_16">
    <!-- Temperature for region 12 and 15 where $\dot{T}_{\text{heat}}$ = 0, optimal $\chi_{\text{eff}}$ = 0.0369 m²/s -->
    <g transform="translate(7.2 19.92) scale(0.12 -0.12)">
     <defs>
      <path id="DejaVuSans-66" d="M 2375 4863 
L 2375 4384 
L 1825 4384 
Q 1516 4384 1395 4259 
Q 1275 4134 1275 3809 
L 1275 3500 
L 2222 3500 
L 2222 3053 
L 1275 3053 
L 1275 0 
L 697 0 
L 697 3053 
L 147 3053 
L 147 3500 
L 697 3500 
L 697 3744 
Q 697 4328 969 4595 
Q 1241 4863 1831 4863 
L 2375 4863 
z
" transform="scale(0.015625)"/>
      <path id="DejaVuSans-77" d="M 269 3500 
L 844 3500 
L 1563 769 
L 2278 3500 
L 2956 3500 
L 3675 769 
L 4391 3500 
L 4966 3500 
L 4050 0 
L 3372 0 
L 2619 2869 
L 1863 0 
L 1184 0 
L 269 3500 
z
" transform="scale(0.015625)"/>
      <path id="DejaVuSans-68" d="M 3513 2113 
L 3513 0 
L 2938 0 
L 2938 2094 
Q 2938 2591 2744 2837 
Q 2550 3084 2163 3084 
Q 1697 3084 1428 2787 
Q 1159 2491 1159 1978 
L 1159 0 
L 581 0 
L 581 4863 
L 1159 4863 
L 1159 2956 
Q 1366 3272 1645 3428 
Q 1925 3584 2291 3584 
Q 2894 3584 3203 3211 
Q 3513 2838 3513 2113 
z
" transform="scale(0.015625)"/>
      <path id="DejaVuSans-307" d="M -1894 4863 
L -1319 4863 
L -1319 4134 
L -1894 4134 
L -1894 4863 
z
M -1600 3584 
L -1600 3584 
z
" transform="scale(0.015625)"/>
      <path id="DejaVuSans-Oblique-54" d="M 378 4666 
L 4325 4666 
L 4225 4134 
L 2559 4134 
L 1759 0 
L 1125 0 
L 1925 4134 
L 275 4134 
L 378 4666 
z
" transform="scale(0.015625)"/>
      <path id="DejaVuSans-3d" d="M 678 2906 
L 4684 2906 
L 4684 2381 
L 678 2381 
L 678 2906 
z
M 678 1631 
L 4684 1631 
L 4684 1100 
L 678 1100 
L 678 1631 
z
" transform="scale(0.015625)"/>
      <path id="DejaVuSans-2c" d="M 750 794 
L 1409 794 
L 1409 256 
L 897 -744 
L 494 -744 
L 750 256 
L 750 794 
z
" transform="scale(0.015625)"/>
      <path id="DejaVuSans-Oblique-3c7" d="M 1922 -781 
L 1691 416 
L 394 -1334 
L -284 -1334 
L 1553 1141 
L 1269 2613 
Q 1194 3006 713 3006 
L 559 3006 
L 653 3500 
L 872 3494 
Q 1675 3472 1775 2950 
L 2006 1753 
L 3303 3503 
L 3981 3503 
L 2144 1028 
L 2428 -444 
Q 2503 -838 2984 -838 
L 3138 -838 
L 3044 -1331 
L 2825 -1325 
Q 2022 -1303 1922 -781 
z
" transform="scale(0.015625)"/>
      <path id="DejaVuSans-b2" d="M 838 2444 
L 2163 2444 
L 2163 2088 
L 294 2088 
L 294 2431 
Q 400 2528 597 2703 
Q 1672 3656 1672 3950 
Q 1672 4156 1509 4282 
Q 1347 4409 1081 4409 
Q 919 4409 728 4354 
Q 538 4300 313 4191 
L 313 4575 
Q 553 4663 761 4706 
Q 969 4750 1147 4750 
Q 1600 4750 1872 4544 
Q 2144 4338 2144 4000 
Q 2144 3566 1109 2678 
Q 934 2528 838 2444 
z
" transform="scale(0.015625)"/>
      <path id="DejaVuSans-2f" d="M 1625 4666 
L 2156 4666 
L 531 -594 
L 0 -594 
L 1625 4666 
z
" transform="scale(0.015625)"/>
     </defs>
     <use xlink:href="#DejaVuSans-54" transform="translate(0 0.609375)"/>
     <use xlink:href="#DejaVuSans-65" transform="translate(61.083984 0.609375)"/>
     <use xlink:href="#DejaVuSans-6d" transform="translate(122.607422 0.609375)"/>
     <use xlink:href="#DejaVuSans-70" transform="translate(220.019531 0.609375)"/>
     <use xlink:href="#DejaVuSans-65" transform="translate(283.496094 0.609375)"/>
     <use xlink:href="#DejaVuSans-72" transform="translate(345.019531 0.609375)"/>
     <use xlink:href="#DejaVuSans-61" transform="translate(386.132812 0.609375)"/>
     <use xlink:href="#DejaVuSans-74" transform="translate(447.412109 0.609375)"/>
     <use xlink:href="#DejaVuSans-75" transform="translate(486.621094 0.609375)"/>
     <use xlink:href="#DejaVuSans-72" transform="translate(550 0.609375)"/>
     <use xlink:href="#DejaVuSans-65" transform="translate(591.113281 0.609375)"/>
     <use xlink:href="#DejaVuSans-20" transform="translate(652.636719 0.609375)"/>
     <use xlink:href="#DejaVuSans-66" transform="translate(684.423828 0.609375)"/>
     <use xlink:href="#DejaVuSans-6f" transform="translate(719.628906 0.609375)"/>
     <use xlink:href="#DejaVuSans-72" transform="translate(780.810547 0.609375)"/>
     <use xlink:href="#DejaVuSans-20" transform="translate(821.923828 0.609375)"/>
     <use xlink:href="#DejaVuSans-72" transform="translate(853.710938 0.609375)"/>
     <use xlink:href="#DejaVuSans-65" transform="translate(894.824219 0.609375)"/>
     <use xlink:href="#DejaVuSans-67" transform="translate(956.347656 0.609375)"/>
     <use xlink:href="#DejaVuSans-69" transform="translate(1019.824219 0.609375)"/>
     <use xlink:href="#DejaVuSans-6f" transform="translate(1047.607422 0.609375)"/>
     <use xlink:href="#DejaVuSans-6e" transform="translate(1108.789062 0.609375)"/>
     <use xlink:href="#DejaVuSans-20" transform="translate(1172.167969 0.609375)"/>
     <use xlink:href="#DejaVuSans-31" transform="translate(1203.955078 0.609375)"/>
     <use xlink:href="#DejaVuSans-32" transform="translate(1267.578125 0.609375)"/>
     <use xlink:href="#DejaVuSans-20" transform="translate(1331.201172 0.609375)"/>
     <use xlink:href="#DejaVuSans-61" transform="translate(1362.988281 0.609375)"/>
     <use xlink:href="#DejaVuSans-6e" transform="translate(1424.267578 0.609375)"/>
     <use xlink:href="#DejaVuSans-64" transform="translate(1487.646484 0.609375)"/>
     <use xlink:href="#DejaVuSans-20" transform="translate(1551.123047 0.609375)"/>
     <use xlink:href="#DejaVuSans-31" transform="translate(1582.910156 0.609375)"/>
     <use xlink:href="#DejaVuSans-35" transform="translate(1646.533203 0.609375)"/>
     <use xlink:href="#DejaVuSans-20" transform="translate(1710.15625 0.609375)"/>
     <use xlink:href="#DejaVuSans-77" transform="translate(1741.943359 0.609375)"/>
     <use xlink:href="#DejaVuSans-68" transform="translate(1823.730469 0.609375)"/>
     <use xlink:href="#DejaVuSans-65" transform="translate(1887.109375 0.609375)"/>
     <use xlink:href="#DejaVuSans-72" transform="translate(1948.632812 0.609375)"/>
     <use xlink:href="#DejaVuSans-65" transform="translate(1989.746094 0.609375)"/>
     <use xlink:href="#DejaVuSans-20" transform="translate(2051.269531 0.609375)"/>
     <use xlink:href="#DejaVuSans-307" transform="translate(2145.921387 30.015625)"/>
     <use xlink:href="#DejaVuSans-Oblique-54" transform="translate(2083.056641 0.609375)"/>
     <use xlink:href="#DejaVuSans-68" transform="translate(2145.097656 -15.796875) scale(0.7)"/>
     <use xlink:href="#DejaVuSans-65" transform="translate(2189.462891 -15.796875) scale(0.7)"/>
     <use xlink:href="#DejaVuSans-61" transform="translate(2232.529297 -15.796875) scale(0.7)"/>
     <use xlink:href="#DejaVuSans-74" transform="translate(2275.424805 -15.796875) scale(0.7)"/>
     <use xlink:href="#DejaVuSans-20" transform="translate(2305.605469 0.609375)"/>
     <use xlink:href="#DejaVuSans-3d" transform="translate(2337.392578 0.609375)"/>
     <use xlink:href="#DejaVuSans-20" transform="translate(2421.181641 0.609375)"/>
     <use xlink:href="#DejaVuSans-30" transform="translate(2452.96875 0.609375)"/>
     <use xlink:href="#DejaVuSans-2c" transform="translate(2516.591797 0.609375)"/>
     <use xlink:href="#DejaVuSans-20" transform="translate(2548.378906 0.609375)"/>
     <use xlink:href="#DejaVuSans-6f" transform="translate(2580.166016 0.609375)"/>
     <use xlink:href="#DejaVuSans-70" transform="translate(2641.347656 0.609375)"/>
     <use xlink:href="#DejaVuSans-74" transform="translate(2704.824219 0.609375)"/>
     <use xlink:href="#DejaVuSans-69" transform="translate(2744.033203 0.609375)"/>
     <use xlink:href="#DejaVuSans-6d" transform="translate(2771.816406 0.609375)"/>
     <use xlink:href="#DejaVuSans-61" transform="translate(2869.228516 0.609375)"/>
     <use xlink:href="#DejaVuSans-6c" transform="translate(2930.507812 0.609375)"/>
     <use xlink:href="#DejaVuSans-20" transform="translate(2958.291016 0.609375)"/>
     <use xlink:href="#DejaVuSans-Oblique-3c7" transform="translate(2990.078125 0.609375)"/>
     <use xlink:href="#DejaVuSans-65" transform="translate(3049.257812 -15.796875) scale(0.7)"/>
     <use xlink:href="#DejaVuSans-66" transform="translate(3092.324219 -15.796875) scale(0.7)"/>
     <use xlink:href="#DejaVuSans-66" transform="translate(3116.967773 -15.796875) scale(0.7)"/>
     <use xlink:href="#DejaVuSans-20" transform="translate(3144.345703 0.609375)"/>
     <use xlink:href="#DejaVuSans-3d" transform="translate(3176.132812 0.609375)"/>
     <use xlink:href="#DejaVuSans-20" transform="translate(3259.921875 0.609375)"/>
     <use xlink:href="#DejaVuSans-30" transform="translate(3291.708984 0.609375)"/>
     <use xlink:href="#DejaVuSans-2e" transform="translate(3355.332031 0.609375)"/>
     <use xlink:href="#DejaVuSans-30" transform="translate(3387.119141 0.609375)"/>
     <use xlink:href="#DejaVuSans-33" transform="translate(3450.742188 0.609375)"/>
     <use xlink:href="#DejaVuSans-36" transform="translate(3514.365234 0.609375)"/>
     <use xlink:href="#DejaVuSans-39" transform="translate(3577.988281 0.609375)"/>
     <use xlink:href="#DejaVuSans-20" transform="translate(3641.611328 0.609375)"/>
     <use xlink:href="#DejaVuSans-6d" transform="translate(3673.398438 0.609375)"/>
     <use xlink:href="#DejaVuSans-b2" transform="translate(3770.810547 0.609375)"/>
     <use xlink:href="#DejaVuSans-2f" transform="translate(3810.898438 0.609375)"/>
     <use xlink:href="#DejaVuSans-73" transform="translate(3844.589844 0.609375)"/>
    </g>
   </g>
   <g id="legend_1">
    <g id="patch_7">
     <path d="M 426.58 212.227875 
L 615.78625 212.227875 
Q 617.78625 212.227875 617.78625 210.227875 
L 617.78625 107.724125 
Q 617.78625 105.724125 615.78625 105.724125 
L 426.58 105.724125 
Q 424.58 105.724125 424.58 107.724125 
L 424.58 210.227875 
Q 424.58 212.227875 426.58 212.227875 
z
" style="fill: #ffffff; opacity: 0.8; stroke: #cccccc; stroke-linejoin: miter"/>
    </g>
    <g id="line2d_18">
     <g>
      <use xlink:href="#m4652a25de3" x="438.58" y="120.461312" style="fill: #1f77b4; stroke: #1f77b4"/>
     </g>
    </g>
    <g id="text_17">
     <!-- Mean temperature at region 12 -->
     <g transform="translate(456.58 117.322562) scale(0.1 -0.1)">
      <defs>
       <path id="DejaVuSans-4d" d="M 628 4666 
L 1569 4666 
L 2759 1491 
L 3956 4666 
L 4897 4666 
L 4897 0 
L 4281 0 
L 4281 4097 
L 3078 897 
L 2444 897 
L 1241 4097 
L 1241 0 
L 628 0 
L 628 4666 
z
" transform="scale(0.015625)"/>
      </defs>
      <use xlink:href="#DejaVuSans-4d"/>
      <use xlink:href="#DejaVuSans-65" transform="translate(86.279297 0)"/>
      <use xlink:href="#DejaVuSans-61" transform="translate(147.802734 0)"/>
      <use xlink:href="#DejaVuSans-6e" transform="translate(209.082031 0)"/>
      <use xlink:href="#DejaVuSans-20" transform="translate(272.460938 0)"/>
      <use xlink:href="#DejaVuSans-74" transform="translate(304.248047 0)"/>
      <use xlink:href="#DejaVuSans-65" transform="translate(343.457031 0)"/>
      <use xlink:href="#DejaVuSans-6d" transform="translate(404.980469 0)"/>
      <use xlink:href="#DejaVuSans-70" transform="translate(502.392578 0)"/>
      <use xlink:href="#DejaVuSans-65" transform="translate(565.869141 0)"/>
      <use xlink:href="#DejaVuSans-72" transform="translate(627.392578 0)"/>
      <use xlink:href="#DejaVuSans-61" transform="translate(668.505859 0)"/>
      <use xlink:href="#DejaVuSans-74" transform="translate(729.785156 0)"/>
      <use xlink:href="#DejaVuSans-75" transform="translate(768.994141 0)"/>
      <use xlink:href="#DejaVuSans-72" transform="translate(832.373047 0)"/>
      <use xlink:href="#DejaVuSans-65" transform="translate(871.236328 0)"/>
      <use xlink:href="#DejaVuSans-20" transform="translate(932.759766 0)"/>
      <use xlink:href="#DejaVuSans-61" transform="translate(964.546875 0)"/>
      <use xlink:href="#DejaVuSans-74" transform="translate(1025.826172 0)"/>
      <use xlink:href="#DejaVuSans-20" transform="translate(1065.035156 0)"/>
      <use xlink:href="#DejaVuSans-72" transform="translate(1096.822266 0)"/>
      <use xlink:href="#DejaVuSans-65" transform="translate(1135.685547 0)"/>
      <use xlink:href="#DejaVuSans-67" transform="translate(1197.208984 0)"/>
      <use xlink:href="#DejaVuSans-69" transform="translate(1260.685547 0)"/>
      <use xlink:href="#DejaVuSans-6f" transform="translate(1288.46875 0)"/>
      <use xlink:href="#DejaVuSans-6e" transform="translate(1349.650391 0)"/>
      <use xlink:href="#DejaVuSans-20" transform="translate(1413.029297 0)"/>
      <use xlink:href="#DejaVuSans-31" transform="translate(1444.816406 0)"/>
      <use xlink:href="#DejaVuSans-32" transform="translate(1508.439453 0)"/>
     </g>
     <!-- [30.7 29.8 29.7 29.6] -->
     <g transform="translate(456.58 128.520375) scale(0.1 -0.1)">
      <defs>
       <path id="DejaVuSans-37" d="M 525 4666 
L 3525 4666 
L 3525 4397 
L 1831 0 
L 1172 0 
L 2766 4134 
L 525 4134 
L 525 4666 
z
" transform="scale(0.015625)"/>
      </defs>
      <use xlink:href="#DejaVuSans-5b"/>
      <use xlink:href="#DejaVuSans-33" transform="translate(39.013672 0)"/>
      <use xlink:href="#DejaVuSans-30" transform="translate(102.636719 0)"/>
      <use xlink:href="#DejaVuSans-2e" transform="translate(166.259766 0)"/>
      <use xlink:href="#DejaVuSans-37" transform="translate(198.046875 0)"/>
      <use xlink:href="#DejaVuSans-20" transform="translate(261.669922 0)"/>
      <use xlink:href="#DejaVuSans-32" transform="translate(293.457031 0)"/>
      <use xlink:href="#DejaVuSans-39" transform="translate(357.080078 0)"/>
      <use xlink:href="#DejaVuSans-2e" transform="translate(420.703125 0)"/>
      <use xlink:href="#DejaVuSans-38" transform="translate(452.490234 0)"/>
      <use xlink:href="#DejaVuSans-20" transform="translate(516.113281 0)"/>
      <use xlink:href="#DejaVuSans-32" transform="translate(547.900391 0)"/>
      <use xlink:href="#DejaVuSans-39" transform="translate(611.523438 0)"/>
      <use xlink:href="#DejaVuSans-2e" transform="translate(675.146484 0)"/>
      <use xlink:href="#DejaVuSans-37" transform="translate(706.933594 0)"/>
      <use xlink:href="#DejaVuSans-20" transform="translate(770.556641 0)"/>
      <use xlink:href="#DejaVuSans-32" transform="translate(802.34375 0)"/>
      <use xlink:href="#DejaVuSans-39" transform="translate(865.966797 0)"/>
      <use xlink:href="#DejaVuSans-2e" transform="translate(929.589844 0)"/>
      <use xlink:href="#DejaVuSans-36" transform="translate(961.376953 0)"/>
      <use xlink:href="#DejaVuSans-5d" transform="translate(1025 0)"/>
     </g>
    </g>
    <g id="line2d_19">
     <g>
      <use xlink:href="#mb5ed5811d6" x="438.58" y="146.33725" style="fill: #ff7f0e; stroke: #ff7f0e"/>
     </g>
    </g>
    <g id="text_18">
     <!-- Mean temperature at region 15 -->
     <g transform="translate(456.58 143.1985) scale(0.1 -0.1)">
      <use xlink:href="#DejaVuSans-4d"/>
      <use xlink:href="#DejaVuSans-65" transform="translate(86.279297 0)"/>
      <use xlink:href="#DejaVuSans-61" transform="translate(147.802734 0)"/>
      <use xlink:href="#DejaVuSans-6e" transform="translate(209.082031 0)"/>
      <use xlink:href="#DejaVuSans-20" transform="translate(272.460938 0)"/>
      <use xlink:href="#DejaVuSans-74" transform="translate(304.248047 0)"/>
      <use xlink:href="#DejaVuSans-65" transform="translate(343.457031 0)"/>
      <use xlink:href="#DejaVuSans-6d" transform="translate(404.980469 0)"/>
      <use xlink:href="#DejaVuSans-70" transform="translate(502.392578 0)"/>
      <use xlink:href="#DejaVuSans-65" transform="translate(565.869141 0)"/>
      <use xlink:href="#DejaVuSans-72" transform="translate(627.392578 0)"/>
      <use xlink:href="#DejaVuSans-61" transform="translate(668.505859 0)"/>
      <use xlink:href="#DejaVuSans-74" transform="translate(729.785156 0)"/>
      <use xlink:href="#DejaVuSans-75" transform="translate(768.994141 0)"/>
      <use xlink:href="#DejaVuSans-72" transform="translate(832.373047 0)"/>
      <use xlink:href="#DejaVuSans-65" transform="translate(871.236328 0)"/>
      <use xlink:href="#DejaVuSans-20" transform="translate(932.759766 0)"/>
      <use xlink:href="#DejaVuSans-61" transform="translate(964.546875 0)"/>
      <use xlink:href="#DejaVuSans-74" transform="translate(1025.826172 0)"/>
      <use xlink:href="#DejaVuSans-20" transform="translate(1065.035156 0)"/>
      <use xlink:href="#DejaVuSans-72" transform="translate(1096.822266 0)"/>
      <use xlink:href="#DejaVuSans-65" transform="translate(1135.685547 0)"/>
      <use xlink:href="#DejaVuSans-67" transform="translate(1197.208984 0)"/>
      <use xlink:href="#DejaVuSans-69" transform="translate(1260.685547 0)"/>
      <use xlink:href="#DejaVuSans-6f" transform="translate(1288.46875 0)"/>
      <use xlink:href="#DejaVuSans-6e" transform="translate(1349.650391 0)"/>
      <use xlink:href="#DejaVuSans-20" transform="translate(1413.029297 0)"/>
      <use xlink:href="#DejaVuSans-31" transform="translate(1444.816406 0)"/>
      <use xlink:href="#DejaVuSans-35" transform="translate(1508.439453 0)"/>
     </g>
     <!-- [30.9 30.1 30.  29.9] -->
     <g transform="translate(456.58 154.396312) scale(0.1 -0.1)">
      <use xlink:href="#DejaVuSans-5b"/>
      <use xlink:href="#DejaVuSans-33" transform="translate(39.013672 0)"/>
      <use xlink:href="#DejaVuSans-30" transform="translate(102.636719 0)"/>
      <use xlink:href="#DejaVuSans-2e" transform="translate(166.259766 0)"/>
      <use xlink:href="#DejaVuSans-39" transform="translate(198.046875 0)"/>
      <use xlink:href="#DejaVuSans-20" transform="translate(261.669922 0)"/>
      <use xlink:href="#DejaVuSans-33" transform="translate(293.457031 0)"/>
      <use xlink:href="#DejaVuSans-30" transform="translate(357.080078 0)"/>
      <use xlink:href="#DejaVuSans-2e" transform="translate(420.703125 0)"/>
      <use xlink:href="#DejaVuSans-31" transform="translate(452.490234 0)"/>
      <use xlink:href="#DejaVuSans-20" transform="translate(516.113281 0)"/>
      <use xlink:href="#DejaVuSans-33" transform="translate(547.900391 0)"/>
      <use xlink:href="#DejaVuSans-30" transform="translate(611.523438 0)"/>
      <use xlink:href="#DejaVuSans-2e" transform="translate(675.146484 0)"/>
      <use xlink:href="#DejaVuSans-20" transform="translate(706.933594 0)"/>
      <use xlink:href="#DejaVuSans-20" transform="translate(738.720703 0)"/>
      <use xlink:href="#DejaVuSans-32" transform="translate(770.507812 0)"/>
      <use xlink:href="#DejaVuSans-39" transform="translate(834.130859 0)"/>
      <use xlink:href="#DejaVuSans-2e" transform="translate(897.753906 0)"/>
      <use xlink:href="#DejaVuSans-39" transform="translate(929.541016 0)"/>
      <use xlink:href="#DejaVuSans-5d" transform="translate(993.164062 0)"/>
     </g>
    </g>
    <g id="line2d_20">
     <path d="M 428.58 172.213187 
L 438.58 172.213187 
L 448.58 172.213187 
" style="fill: none; stroke: #2ca02c; stroke-width: 1.5; stroke-linecap: square"/>
    </g>
    <g id="text_19">
     <!-- Flow velocity at region 12 -->
     <g transform="translate(456.58 169.074437) scale(0.1 -0.1)">
      <defs>
       <path id="DejaVuSans-46" d="M 628 4666 
L 3309 4666 
L 3309 4134 
L 1259 4134 
L 1259 2759 
L 3109 2759 
L 3109 2228 
L 1259 2228 
L 1259 0 
L 628 0 
L 628 4666 
z
" transform="scale(0.015625)"/>
       <path id="DejaVuSans-76" d="M 191 3500 
L 800 3500 
L 1894 563 
L 2988 3500 
L 3597 3500 
L 2284 0 
L 1503 0 
L 191 3500 
z
" transform="scale(0.015625)"/>
       <path id="DejaVuSans-79" d="M 2059 -325 
Q 1816 -950 1584 -1140 
Q 1353 -1331 966 -1331 
L 506 -1331 
L 506 -850 
L 844 -850 
Q 1081 -850 1212 -737 
Q 1344 -625 1503 -206 
L 1606 56 
L 191 3500 
L 800 3500 
L 1894 763 
L 2988 3500 
L 3597 3500 
L 2059 -325 
z
" transform="scale(0.015625)"/>
      </defs>
      <use xlink:href="#DejaVuSans-46"/>
      <use xlink:href="#DejaVuSans-6c" transform="translate(57.519531 0)"/>
      <use xlink:href="#DejaVuSans-6f" transform="translate(85.302734 0)"/>
      <use xlink:href="#DejaVuSans-77" transform="translate(146.484375 0)"/>
      <use xlink:href="#DejaVuSans-20" transform="translate(228.271484 0)"/>
      <use xlink:href="#DejaVuSans-76" transform="translate(260.058594 0)"/>
      <use xlink:href="#DejaVuSans-65" transform="translate(319.238281 0)"/>
      <use xlink:href="#DejaVuSans-6c" transform="translate(380.761719 0)"/>
      <use xlink:href="#DejaVuSans-6f" transform="translate(408.544922 0)"/>
      <use xlink:href="#DejaVuSans-63" transform="translate(469.726562 0)"/>
      <use xlink:href="#DejaVuSans-69" transform="translate(524.707031 0)"/>
      <use xlink:href="#DejaVuSans-74" transform="translate(552.490234 0)"/>
      <use xlink:href="#DejaVuSans-79" transform="translate(591.699219 0)"/>
      <use xlink:href="#DejaVuSans-20" transform="translate(650.878906 0)"/>
      <use xlink:href="#DejaVuSans-61" transform="translate(682.666016 0)"/>
      <use xlink:href="#DejaVuSans-74" transform="translate(743.945312 0)"/>
      <use xlink:href="#DejaVuSans-20" transform="translate(783.154297 0)"/>
      <use xlink:href="#DejaVuSans-72" transform="translate(814.941406 0)"/>
      <use xlink:href="#DejaVuSans-65" transform="translate(853.804688 0)"/>
      <use xlink:href="#DejaVuSans-67" transform="translate(915.328125 0)"/>
      <use xlink:href="#DejaVuSans-69" transform="translate(978.804688 0)"/>
      <use xlink:href="#DejaVuSans-6f" transform="translate(1006.587891 0)"/>
      <use xlink:href="#DejaVuSans-6e" transform="translate(1067.769531 0)"/>
      <use xlink:href="#DejaVuSans-20" transform="translate(1131.148438 0)"/>
      <use xlink:href="#DejaVuSans-31" transform="translate(1162.935547 0)"/>
      <use xlink:href="#DejaVuSans-32" transform="translate(1226.558594 0)"/>
     </g>
     <!-- $v$ = -0.0391 m/s -->
     <g transform="translate(456.58 180.27225) scale(0.1 -0.1)">
      <defs>
       <path id="DejaVuSans-Oblique-76" d="M 459 3500 
L 1069 3500 
L 1581 525 
L 3256 3500 
L 3866 3500 
L 1875 0 
L 1100 0 
L 459 3500 
z
" transform="scale(0.015625)"/>
      </defs>
      <use xlink:href="#DejaVuSans-Oblique-76" transform="translate(0 0.78125)"/>
      <use xlink:href="#DejaVuSans-20" transform="translate(59.179688 0.78125)"/>
      <use xlink:href="#DejaVuSans-3d" transform="translate(90.966797 0.78125)"/>
      <use xlink:href="#DejaVuSans-20" transform="translate(174.755859 0.78125)"/>
      <use xlink:href="#DejaVuSans-2d" transform="translate(206.542969 0.78125)"/>
      <use xlink:href="#DejaVuSans-30" transform="translate(242.626953 0.78125)"/>
      <use xlink:href="#DejaVuSans-2e" transform="translate(306.25 0.78125)"/>
      <use xlink:href="#DejaVuSans-30" transform="translate(338.037109 0.78125)"/>
      <use xlink:href="#DejaVuSans-33" transform="translate(401.660156 0.78125)"/>
      <use xlink:href="#DejaVuSans-39" transform="translate(465.283203 0.78125)"/>
      <use xlink:href="#DejaVuSans-31" transform="translate(528.90625 0.78125)"/>
      <use xlink:href="#DejaVuSans-20" transform="translate(592.529297 0.78125)"/>
      <use xlink:href="#DejaVuSans-6d" transform="translate(624.316406 0.78125)"/>
      <use xlink:href="#DejaVuSans-2f" transform="translate(721.728516 0.78125)"/>
      <use xlink:href="#DejaVuSans-73" transform="translate(755.419922 0.78125)"/>
     </g>
    </g>
    <g id="line2d_21">
     <path d="M 428.58 198.089125 
L 438.58 198.089125 
L 448.58 198.089125 
" style="fill: none; stroke: #d62728; stroke-width: 1.5; stroke-linecap: square"/>
    </g>
    <g id="text_20">
     <!-- Flow velocity at region 15 -->
     <g transform="translate(456.58 194.950375) scale(0.1 -0.1)">
      <use xlink:href="#DejaVuSans-46"/>
      <use xlink:href="#DejaVuSans-6c" transform="translate(57.519531 0)"/>
      <use xlink:href="#DejaVuSans-6f" transform="translate(85.302734 0)"/>
      <use xlink:href="#DejaVuSans-77" transform="translate(146.484375 0)"/>
      <use xlink:href="#DejaVuSans-20" transform="translate(228.271484 0)"/>
      <use xlink:href="#DejaVuSans-76" transform="translate(260.058594 0)"/>
      <use xlink:href="#DejaVuSans-65" transform="translate(319.238281 0)"/>
      <use xlink:href="#DejaVuSans-6c" transform="translate(380.761719 0)"/>
      <use xlink:href="#DejaVuSans-6f" transform="translate(408.544922 0)"/>
      <use xlink:href="#DejaVuSans-63" transform="translate(469.726562 0)"/>
      <use xlink:href="#DejaVuSans-69" transform="translate(524.707031 0)"/>
      <use xlink:href="#DejaVuSans-74" transform="translate(552.490234 0)"/>
      <use xlink:href="#DejaVuSans-79" transform="translate(591.699219 0)"/>
      <use xlink:href="#DejaVuSans-20" transform="translate(650.878906 0)"/>
      <use xlink:href="#DejaVuSans-61" transform="translate(682.666016 0)"/>
      <use xlink:href="#DejaVuSans-74" transform="translate(743.945312 0)"/>
      <use xlink:href="#DejaVuSans-20" transform="translate(783.154297 0)"/>
      <use xlink:href="#DejaVuSans-72" transform="translate(814.941406 0)"/>
      <use xlink:href="#DejaVuSans-65" transform="translate(853.804688 0)"/>
      <use xlink:href="#DejaVuSans-67" transform="translate(915.328125 0)"/>
      <use xlink:href="#DejaVuSans-69" transform="translate(978.804688 0)"/>
      <use xlink:href="#DejaVuSans-6f" transform="translate(1006.587891 0)"/>
      <use xlink:href="#DejaVuSans-6e" transform="translate(1067.769531 0)"/>
      <use xlink:href="#DejaVuSans-20" transform="translate(1131.148438 0)"/>
      <use xlink:href="#DejaVuSans-31" transform="translate(1162.935547 0)"/>
      <use xlink:href="#DejaVuSans-35" transform="translate(1226.558594 0)"/>
     </g>
     <!-- $v$ = -0.0392 m/s -->
     <g transform="translate(456.58 206.148187) scale(0.1 -0.1)">
      <use xlink:href="#DejaVuSans-Oblique-76" transform="translate(0 0.78125)"/>
      <use xlink:href="#DejaVuSans-20" transform="translate(59.179688 0.78125)"/>
      <use xlink:href="#DejaVuSans-3d" transform="translate(90.966797 0.78125)"/>
      <use xlink:href="#DejaVuSans-20" transform="translate(174.755859 0.78125)"/>
      <use xlink:href="#DejaVuSans-2d" transform="translate(206.542969 0.78125)"/>
      <use xlink:href="#DejaVuSans-30" transform="translate(242.626953 0.78125)"/>
      <use xlink:href="#DejaVuSans-2e" transform="translate(306.25 0.78125)"/>
      <use xlink:href="#DejaVuSans-30" transform="translate(338.037109 0.78125)"/>
      <use xlink:href="#DejaVuSans-33" transform="translate(401.660156 0.78125)"/>
      <use xlink:href="#DejaVuSans-39" transform="translate(465.283203 0.78125)"/>
      <use xlink:href="#DejaVuSans-32" transform="translate(527.15625 0.78125)"/>
      <use xlink:href="#DejaVuSans-20" transform="translate(590.779297 0.78125)"/>
      <use xlink:href="#DejaVuSans-6d" transform="translate(622.566406 0.78125)"/>
      <use xlink:href="#DejaVuSans-2f" transform="translate(719.978516 0.78125)"/>
      <use xlink:href="#DejaVuSans-73" transform="translate(753.669922 0.78125)"/>
     </g>
    </g>
   </g>
  </g>
 </g>
 <defs>
  <clipPath id="p820e9474fa">
   <rect x="62.46" y="25.92" width="357.12" height="266.112"/>
  </clipPath>
 </defs>
</svg>
